<?xml version="1.0" encoding="utf-8"?>
<!-- Generator: Adobe Illustrator 15.0.0, SVG Export Plug-In . SVG Version: 6.00 Build 0)  -->
<!DOCTYPE svg PUBLIC "-//W3C//DTD SVG 1.1//EN" "http://www.w3.org/Graphics/SVG/1.1/DTD/svg11.dtd">
<svg version="1.1" id="Layer_1" xmlns="http://www.w3.org/2000/svg" xmlns:xlink="http://www.w3.org/1999/xlink" x="0px" y="0px"
	 width="100px" height="100px" viewBox="0 0 100 100" enable-background="new 0 0 100 100" xml:space="preserve">
<g id="Layer_1_1_" display="none">
	<g display="inline">
		<path d="M72.5,69.5h-45c-0.829,0-1.5-0.672-1.5-1.5V31.999c0-0.828,0.671-1.499,1.5-1.499h45c0.829,0,1.5,0.671,1.5,1.499V68
			C74,68.828,73.329,69.5,72.5,69.5z M29,66.5h42v-33H29V66.5z"/>
		<path d="M72.357,45.616H27.642c-0.829,0-1.5-0.671-1.5-1.501c0-0.828,0.671-1.5,1.5-1.5h44.717c0.828,0,1.5,0.672,1.5,1.5
			C73.857,44.945,73.188,45.616,72.357,45.616z"/>
		<path d="M35,38.04c0,1.083-0.877,1.96-1.96,1.96h-0.08C31.877,40,31,39.123,31,38.04v-0.08c0-1.083,0.877-1.96,1.96-1.96h0.08
			c1.083,0,1.96,0.877,1.96,1.96V38.04z"/>
		<path d="M42,38.04c0,1.083-0.877,1.96-1.96,1.96h-0.08C38.877,40,38,39.123,38,38.04v-0.08c0-1.083,0.877-1.96,1.96-1.96h0.08
			c1.083,0,1.96,0.877,1.96,1.96V38.04z"/>
		<path d="M49,38.04c0,1.083-0.877,1.96-1.96,1.96h-0.08C45.877,40,45,39.123,45,38.04v-0.08c0-1.083,0.877-1.96,1.96-1.96h0.08
			c1.083,0,1.96,0.877,1.96,1.96V38.04z"/>
	</g>
</g>
<g id="Layer_2" display="none">
	<g display="inline">
		<path d="M75.5,67.5h-51c-0.829,0-1.5-0.67-1.5-1.5V34c0-0.828,0.671-1.5,1.5-1.5h51c0.829,0,1.5,0.672,1.5,1.5v32
			C77,66.83,76.329,67.5,75.5,67.5z M26,64.5h48v-29H26V64.5z"/>
		<path d="M57.002,50l-14.004,8.494V41.507L57.002,50z"/>
	</g>
</g>
<path d="M67.514,30.648L55.361,34.48c-0.231,0.073-0.442,0.201-0.614,0.374L31.033,58.566c-0.584,0.584-0.592,1.523-0.017,2.098
	l8.32,8.32c0.574,0.576,1.513,0.567,2.097-0.017l22.353-22.353c0.332-0.034,0.659-0.159,0.915-0.415s0.381-0.583,0.415-0.915
	l0.03-0.03c0.172-0.173,0.301-0.384,0.373-0.615l3.832-12.154C69.684,31.435,68.564,30.316,67.514,30.648z M40.409,65.831
	l-6.24-6.24l20.904-20.904l6.24,6.24L40.409,65.831z M63.104,42.488l-5.592-5.591l8.166-2.575L63.104,42.488z"/>
<g id="Layer_4" display="none">
	<path display="inline" d="M50,74c-8.271,0-15-6.729-15-15V41c0-8.27,6.729-15,15-15c8.271,0,15,6.73,15,15v18
		C65,67.271,58.271,74,50,74z M50,29c-6.616,0-12,5.383-12,12v18c0,6.617,5.384,12,12,12c6.617,0,12-5.383,12-12V41
		C62,34.383,56.617,29,50,29z M50.184,46.529c-2.068,0-3.75-1.68-3.75-3.75v-4.498c0-2.068,1.682-3.752,3.75-3.752
		s3.75,1.684,3.75,3.752v4.498C53.934,44.85,52.252,46.529,50.184,46.529z M50.184,37.529c-0.413,0-0.75,0.338-0.75,0.752v4.498
		c0,0.414,0.337,0.75,0.75,0.75c0.414,0,0.75-0.336,0.75-0.75v-4.498C50.934,37.867,50.598,37.529,50.184,37.529z"/>
</g>
</svg>
