<?xml version="1.0" encoding="utf-8"?>
<!-- Generator: Adobe Illustrator 15.0.0, SVG Export Plug-In . SVG Version: 6.00 Build 0)  -->
<!DOCTYPE svg PUBLIC "-//W3C//DTD SVG 1.1//EN" "http://www.w3.org/Graphics/SVG/1.1/DTD/svg11.dtd">
<svg version="1.1" id="Layer_1" xmlns="http://www.w3.org/2000/svg" xmlns:xlink="http://www.w3.org/1999/xlink" x="0px" y="0px"
	 width="50px" height="50px" viewBox="0 0 50 50" enable-background="new 0 0 50 50" xml:space="preserve">
<g opacity="0.5">
	<path fill="#E1C184" d="M45.951,6.76c-11.09,5.598-16.635,13.355-16.635,23.274c0,3.309,1.043,6.118,3.127,8.434
		c2.088,2.316,4.555,3.474,7.402,3.474c2.545,0,4.655-0.891,6.336-2.672c1.678-1.78,2.518-3.969,2.518-6.562
		c0-2.442-0.864-4.591-2.596-6.449c-1.729-1.856-3.918-2.938-6.562-3.243c0-4.122,3.104-7.708,9.312-10.76L45.951,6.76z
		 M17.945,6.76c-11.04,5.598-16.56,13.355-16.56,23.274c0,3.309,1.03,6.118,3.09,8.434c2.061,2.316,4.515,3.474,7.365,3.474
		c2.542,0,4.667-0.891,6.372-2.672c1.704-1.78,2.557-3.969,2.557-6.562c0-2.442-0.865-4.591-2.595-6.449
		c-1.73-1.856-3.943-2.938-6.639-3.243c0-4.122,3.128-7.708,9.387-10.76L17.945,6.76z"/>
</g>
</svg>
