<?xml version="1.0" encoding="utf-8"?>
<!-- Generator: Adobe Illustrator 15.0.0, SVG Export Plug-In . SVG Version: 6.00 Build 0)  -->
<!DOCTYPE svg PUBLIC "-//W3C//DTD SVG 1.1//EN" "http://www.w3.org/Graphics/SVG/1.1/DTD/svg11.dtd">
<svg version="1.1" id="Layer_1" xmlns="http://www.w3.org/2000/svg" xmlns:xlink="http://www.w3.org/1999/xlink" x="0px" y="0px"
	 width="18.278px" height="18.913px" viewBox="0 0 18.278 18.913" enable-background="new 0 0 18.278 18.913" xml:space="preserve">
<g>
	<path fill="#FFFFFF" d="M16.589,16.464l-4.942-4.992c1.85-2.227,1.741-5.56-0.331-7.654c-1.061-1.072-2.473-1.662-3.974-1.662
		c-1.501,0-2.913,0.59-3.974,1.662c-2.19,2.213-2.19,5.812,0,8.024c1.061,1.072,2.473,1.663,3.974,1.663
		c1.352,0,2.628-0.482,3.645-1.361l4.938,4.989c0.092,0.091,0.212,0.137,0.332,0.137c0.12,0,0.24-0.046,0.332-0.137
		C16.772,16.948,16.772,16.648,16.589,16.464z M4.033,11.175c-1.826-1.845-1.826-4.846,0-6.69C4.917,3.592,6.093,3.1,7.343,3.1
		s2.426,0.492,3.31,1.385c1.827,1.844,1.827,4.845,0,6.69c-0.884,0.893-2.06,1.384-3.31,1.384
		C6.093,12.558,4.917,12.067,4.033,11.175z"/>
	<path fill="#FFFFFF" d="M9.698,7.346H7.939V5.573c0-0.261-0.21-0.472-0.469-0.472c-0.258,0-0.469,0.211-0.469,0.472v1.772H5.242
		c-0.259,0-0.469,0.211-0.469,0.473s0.209,0.472,0.469,0.472h1.759v1.773c0,0.261,0.211,0.472,0.469,0.472
		c0.259,0,0.469-0.211,0.469-0.472V8.291h1.759c0.259,0,0.47-0.211,0.47-0.472S9.958,7.346,9.698,7.346z"/>
</g>
</svg>
